<svg width="25" height="25" viewBox="0 0 25 25" fill="none" xmlns="http://www.w3.org/2000/svg">
<mask id="mask0_379_7" style="mask-type:alpha" maskUnits="userSpaceOnUse" x="0" y="0" width="25" height="25">
<rect x="0.201538" y="0.542603" width="24" height="24" fill="#D9D9D9"/>
</mask>
<g mask="url(#mask0_379_7)">
<path d="M12.2015 20.5426C11.6515 20.5426 11.1807 20.3468 10.789 19.9551C10.3974 19.5634 10.2015 19.0926 10.2015 18.5426C10.2015 17.9926 10.3974 17.5218 10.789 17.1301C11.1807 16.7384 11.6515 16.5426 12.2015 16.5426C12.7515 16.5426 13.2224 16.7384 13.614 17.1301C14.0057 17.5218 14.2015 17.9926 14.2015 18.5426C14.2015 19.0926 14.0057 19.5634 13.614 19.9551C13.2224 20.3468 12.7515 20.5426 12.2015 20.5426ZM12.2015 14.5426C11.6515 14.5426 11.1807 14.3468 10.789 13.9551C10.3974 13.5634 10.2015 13.0926 10.2015 12.5426C10.2015 11.9926 10.3974 11.5218 10.789 11.1301C11.1807 10.7384 11.6515 10.5426 12.2015 10.5426C12.7515 10.5426 13.2224 10.7384 13.614 11.1301C14.0057 11.5218 14.2015 11.9926 14.2015 12.5426C14.2015 13.0926 14.0057 13.5634 13.614 13.9551C13.2224 14.3468 12.7515 14.5426 12.2015 14.5426ZM12.2015 8.5426C11.6515 8.5426 11.1807 8.34677 10.789 7.9551C10.3974 7.56344 10.2015 7.0926 10.2015 6.5426C10.2015 5.9926 10.3974 5.52177 10.789 5.1301C11.1807 4.73844 11.6515 4.5426 12.2015 4.5426C12.7515 4.5426 13.2224 4.73844 13.614 5.1301C14.0057 5.52177 14.2015 5.9926 14.2015 6.5426C14.2015 7.0926 14.0057 7.56344 13.614 7.9551C13.2224 8.34677 12.7515 8.5426 12.2015 8.5426Z" fill="#878787"/>
</g>
</svg>
